<svg xmlns="http://www.w3.org/2000/svg" width="90" height="55" viewBox="0 0 90 55">
  <polygon points="20.798 8.3 20.798 30.059 15.842 30.059 15.842 19.934 12.961 26.403 8.005 26.403 5.124 19.963 5.124 30.059 .168 30.059 .168 8.3 5.124 8.3 10.483 20.34 15.842 8.3"/>
  <path d="M7.95103064 44.1663525L7.95103064 54.4238093 6.32104906 54.4238093 6.32104906 50.0199412 1.83859972 50.0199412 1.83859972 54.4238093.208618136 54.4238093.208618136 44.1663525 1.83859972 44.1663525 1.83859972 48.5838972 6.32104906 48.5838972 6.32104906 44.1663525 7.95103064 44.1663525zM15.2803454 44.1663525L15.2803454 54.4238093 13.6503638 54.4238093 13.6503638 44.1663525 15.2803454 44.1663525zM31.438727 49.2950809C31.438727 52.2765817 29.0345041 54.6973415 26.0733709 54.6973415 23.1122377 54.6973415 20.7080149 52.2765817 20.7080149 49.2950809 20.7080149 46.3135801 23.1122377 43.8928203 26.0733709 43.8928203 27.5539375 43.8928203 28.8986723 44.4945911 29.8766613 45.479307L28.7900069 46.5597591C28.1108479 45.8075456 27.1600253 45.3288643 26.0869541 45.3288643 24.0223108 45.3288643 22.3515797 47.1068235 22.3515797 49.2950809 22.3515797 51.4833384 24.0223108 53.2612976 26.0869541 53.2612976 27.9206834 53.2612976 29.4419995 51.8662834 29.7679958 50.0199412L26.0733709 50.0199412 26.0733709 48.5838972 31.3843942 48.5838972C31.4251438 48.8163996 31.438727 49.0489019 31.438727 49.2950809zM44.608809 44.1663525L44.608809 54.4238093 42.9788274 54.4238093 42.9788274 50.0199412 38.4963781 50.0199412 38.4963781 54.4238093 36.8663965 54.4238093 36.8663965 44.1663525 38.4963781 44.1663525 38.4963781 48.5838972 42.9788274 48.5838972 42.9788274 44.1663525 44.608809 44.1663525zM61.1611028 44.1663525L62.8997498 44.1663525 59.8707007 54.4238093 58.2543023 54.4238093 56.1217431 46.9700574 53.9891839 54.4238093 52.3727855 54.4238093 49.3573195 44.1663525 51.0959666 44.1663525 53.1877763 51.5790746 55.3203355 44.1663525 56.9231507 44.1663525 59.0557099 51.5927512 61.1611028 44.1663525zM72.1307097 44.1663525L76.1649141 54.4238093 74.3991008 54.4238093 73.3803623 51.7705472 69.1967429 51.7705472 68.1780044 54.4238093 66.4257742 54.4238093 70.4599786 44.1663525 72.1307097 44.1663525zM69.7400701 50.3481798L72.8370351 50.3481798 71.2885526 46.3272567 69.7400701 50.3481798zM87.7457641 44.1663525L89.701742 44.1663525 85.6403713 49.5139067 85.6403713 54.4238093 84.0103897 54.4238093 84.0103897 49.50023 79.9626021 44.1663525 81.91858 44.1663525 84.8253805 48.0094797 87.7457641 44.1663525zM33.7226617 30.3857866L34.9478586 29.4123601C38.1378695 33.4828705 42.9888896 35.903977 48.2376886 35.903977 57.5817656 35.903977 65.1566367 28.2770036 65.1566367 18.8686552 65.1566367 9.4603067 57.5817656 1.83333333 48.2376886 1.83333333 43.0294811 1.83333333 38.2119897 4.21686474 35.0196414 8.23399049L33.801034 7.25221405C37.2864803 2.86626522 42.550302.261904762 48.2376886.261904762 58.4437129.261904762 66.7173303 8.59243067 66.7173303 18.8686552 66.7173303 29.1448796 58.4437129 37.4754055 48.2376886 37.4754055 42.5059515 37.4754055 37.2055533 34.8300179 33.7226617 30.3857866z"/>
  <path d="M34.8788425,30.0123723 L35.0625371,29.8737177 C34.1274503,28.6177801 33.3558405,27.2341792 32.771205,25.7592112 L31.3216869,26.3416902 C31.7861382,27.5134471 32.3593031,28.6324578 33.0313098,29.6833448 C28.2818093,28.4111928 24.782443,24.0513952 24.782443,18.8686552 C24.782443,13.6645149 28.3107676,9.29012724 33.0902075,8.03836498 C32.4243435,9.06691861 31.8534841,10.1618518 31.3871236,11.3085859 L32.8314203,11.904069 C33.4291284,10.4343639 34.213155,9.05767928 35.1596374,7.81034717 L35.0318304,7.71202779 C35.3169928,7.68994686 35.6051691,7.67870225 35.8959538,7.67870225 C42.0337763,7.67870225 47.0094645,12.6886148 47.0094645,18.8686552 C47.0094645,25.0486955 42.0337763,30.0586081 35.8959538,30.0586081 C35.5530682,30.0586081 35.2138095,30.042973 34.8788425,30.0123723 Z M30.0836321,16.263993 C29.9706015,17.1336282 29.913453,18.0146478 29.9132951,18.9029331 C29.9132951,19.7377088 29.9631824,20.5629492 30.0622264,21.3789294 L31.6113933,21.1882953 C31.5200275,20.4355726 31.4739885,19.6739948 31.4739888,18.903074 C31.4741345,18.0830568 31.5268708,17.2700571 31.6311303,16.467905 L30.0836321,16.263993 Z"/>
  <polygon points="89.356 8.3 89.356 30.059 84.4 30.059 76.333 17.7 76.333 30.059 71.377 30.059 71.377 8.3 76.333 8.3 84.4 20.63 84.4 8.3"/>
</svg>
